<svg width="48" height="48" viewBox="0 0 48 48" fill="none" xmlns="http://www.w3.org/2000/svg">
<path d="M40 0H8C3.58172 0 0 3.58172 0 8V40C0 44.4183 3.58172 48 8 48H40C44.4183 48 48 44.4183 48 40V8C48 3.58172 44.4183 0 40 0Z" fill="#B1EB21"/>
<path d="M11.8551 34C10.0591 31.507 9 28.4396 9 25.1227C9 16.7707 15.7158 10 24.0001 10C32.2844 10 39 16.7707 39 25.1227C39 28.4396 37.941 31.5069 36.1451 34L28.9406 22.205L28.2448 23.3892L28.9507 26.6828L24.0001 18.143L20.9375 23.356L21.6505 26.6828L19.0556 22.2116L11.8551 34Z" fill="#0D0D32"/>
</svg>
